<svg width="46" height="46" viewBox="0 0 46 46" fill="none" xmlns="http://www.w3.org/2000/svg">
<path fill-rule="evenodd" clip-rule="evenodd" d="M11.4997 7.66699H34.4997C36.533 7.66699 38.483 8.47473 39.9208 9.91251C41.3586 11.3503 42.1663 13.3003 42.1663 15.3337V34.5003C42.1663 36.5337 41.3586 38.4837 39.9208 39.9215C38.483 41.3593 36.533 42.167 34.4997 42.167H11.4997C9.46635 42.167 7.5163 41.3593 6.07852 39.9215C4.64074 38.4837 3.83301 36.5337 3.83301 34.5003V15.3337C3.83301 13.3003 4.64074 11.3503 6.07852 9.91251C7.5163 8.47473 9.46635 7.66699 11.4997 7.66699ZM11.4997 11.5003C10.483 11.5003 9.50799 11.9042 8.7891 12.6231C8.07021 13.342 7.66634 14.317 7.66634 15.3337V34.5003C7.66634 35.517 8.07021 36.492 8.7891 37.2109C9.50799 37.9298 10.483 38.3337 11.4997 38.3337H34.4997C35.5163 38.3337 36.4914 37.9298 37.2103 37.2109C37.9291 36.492 38.333 35.517 38.333 34.5003V15.3337C38.333 14.317 37.9291 13.342 37.2103 12.6231C36.4914 11.9042 35.5163 11.5003 34.4997 11.5003H11.4997Z" fill="black"/>
<path fill-rule="evenodd" clip-rule="evenodd" d="M5.75 19.1668C5.75 18.6585 5.95193 18.171 6.31138 17.8115C6.67082 17.4521 7.15833 17.2502 7.66667 17.2502H38.3333C38.8417 17.2502 39.3292 17.4521 39.6886 17.8115C40.0481 18.171 40.25 18.6585 40.25 19.1668C40.25 19.6752 40.0481 20.1627 39.6886 20.5221C39.3292 20.8816 38.8417 21.0835 38.3333 21.0835H7.66667C7.15833 21.0835 6.67082 20.8816 6.31138 20.5221C5.95193 20.1627 5.75 19.6752 5.75 19.1668ZM15.3333 3.8335C15.8417 3.8335 16.3292 4.03543 16.6886 4.39487C17.0481 4.75432 17.25 5.24183 17.25 5.75016V13.4168C17.25 13.9252 17.0481 14.4127 16.6886 14.7721C16.3292 15.1316 15.8417 15.3335 15.3333 15.3335C14.825 15.3335 14.3375 15.1316 13.978 14.7721C13.6186 14.4127 13.4167 13.9252 13.4167 13.4168V5.75016C13.4167 5.24183 13.6186 4.75432 13.978 4.39487C14.3375 4.03543 14.825 3.8335 15.3333 3.8335ZM30.6667 3.8335C31.175 3.8335 31.6625 4.03543 32.022 4.39487C32.3814 4.75432 32.5833 5.24183 32.5833 5.75016V13.4168C32.5833 13.9252 32.3814 14.4127 32.022 14.7721C31.6625 15.1316 31.175 15.3335 30.6667 15.3335C30.1583 15.3335 29.6708 15.1316 29.3114 14.7721C28.9519 14.4127 28.75 13.9252 28.75 13.4168V5.75016C28.75 5.24183 28.9519 4.75432 29.3114 4.39487C29.6708 4.03543 30.1583 3.8335 30.6667 3.8335Z" fill="black"/>
<path d="M15.3333 24.9167C15.3333 25.425 15.1314 25.9125 14.772 26.272C14.4125 26.6314 13.925 26.8333 13.4167 26.8333C12.9083 26.8333 12.4208 26.6314 12.0614 26.272C11.7019 25.9125 11.5 25.425 11.5 24.9167C11.5 24.4083 11.7019 23.9208 12.0614 23.5614C12.4208 23.2019 12.9083 23 13.4167 23C13.925 23 14.4125 23.2019 14.772 23.5614C15.1314 23.9208 15.3333 24.4083 15.3333 24.9167ZM15.3333 32.5833C15.3333 33.0917 15.1314 33.5792 14.772 33.9386C14.4125 34.2981 13.925 34.5 13.4167 34.5C12.9083 34.5 12.4208 34.2981 12.0614 33.9386C11.7019 33.5792 11.5 33.0917 11.5 32.5833C11.5 32.075 11.7019 31.5875 12.0614 31.228C12.4208 30.8686 12.9083 30.6667 13.4167 30.6667C13.925 30.6667 14.4125 30.8686 14.772 31.228C15.1314 31.5875 15.3333 32.075 15.3333 32.5833ZM24.9167 24.9167C24.9167 25.425 24.7147 25.9125 24.3553 26.272C23.9958 26.6314 23.5083 26.8333 23 26.8333C22.4917 26.8333 22.0042 26.6314 21.6447 26.272C21.2853 25.9125 21.0833 25.425 21.0833 24.9167C21.0833 24.4083 21.2853 23.9208 21.6447 23.5614C22.0042 23.2019 22.4917 23 23 23C23.5083 23 23.9958 23.2019 24.3553 23.5614C24.7147 23.9208 24.9167 24.4083 24.9167 24.9167ZM24.9167 32.5833C24.9167 33.0917 24.7147 33.5792 24.3553 33.9386C23.9958 34.2981 23.5083 34.5 23 34.5C22.4917 34.5 22.0042 34.2981 21.6447 33.9386C21.2853 33.5792 21.0833 33.0917 21.0833 32.5833C21.0833 32.075 21.2853 31.5875 21.6447 31.228C22.0042 30.8686 22.4917 30.6667 23 30.6667C23.5083 30.6667 23.9958 30.8686 24.3553 31.228C24.7147 31.5875 24.9167 32.075 24.9167 32.5833ZM34.5 24.9167C34.5 25.425 34.2981 25.9125 33.9386 26.272C33.5792 26.6314 33.0917 26.8333 32.5833 26.8333C32.075 26.8333 31.5875 26.6314 31.228 26.272C30.8686 25.9125 30.6667 25.425 30.6667 24.9167C30.6667 24.4083 30.8686 23.9208 31.228 23.5614C31.5875 23.2019 32.075 23 32.5833 23C33.0917 23 33.5792 23.2019 33.9386 23.5614C34.2981 23.9208 34.5 24.4083 34.5 24.9167ZM34.5 32.5833C34.5 33.0917 34.2981 33.5792 33.9386 33.9386C33.5792 34.2981 33.0917 34.5 32.5833 34.5C32.075 34.5 31.5875 34.2981 31.228 33.9386C30.8686 33.5792 30.6667 33.0917 30.6667 32.5833C30.6667 32.075 30.8686 31.5875 31.228 31.228C31.5875 30.8686 32.075 30.6667 32.5833 30.6667C33.0917 30.6667 33.5792 30.8686 33.9386 31.228C34.2981 31.5875 34.5 32.075 34.5 32.5833Z" fill="black"/>
</svg>
