<svg width="57" height="32" viewBox="0 0 57 32" fill="none" xmlns="http://www.w3.org/2000/svg">
<path d="M28.5 9.6C26.4385 9.6 24.4615 10.2743 23.0039 11.4745C21.5462 12.6747 20.7273 14.3026 20.7273 16C20.7273 17.6974 21.5462 19.3253 23.0039 20.5255C24.4615 21.7257 26.4385 22.4 28.5 22.4C30.5615 22.4 32.5385 21.7257 33.9961 20.5255C35.4538 19.3253 36.2727 17.6974 36.2727 16C36.2727 14.3026 35.4538 12.6747 33.9961 11.4745C32.5385 10.2743 30.5615 9.6 28.5 9.6ZM28.5 26.6667C25.0642 26.6667 21.7692 25.5429 19.3398 23.5425C16.9103 21.5421 15.5455 18.829 15.5455 16C15.5455 13.171 16.9103 10.4579 19.3398 8.45753C21.7692 6.45714 25.0642 5.33333 28.5 5.33333C31.9358 5.33333 35.2308 6.45714 37.6602 8.45753C40.0897 10.4579 41.4545 13.171 41.4545 16C41.4545 18.829 40.0897 21.5421 37.6602 23.5425C35.2308 25.5429 31.9358 26.6667 28.5 26.6667ZM28.5 0C15.5455 0 4.48227 6.63467 0 16C4.48227 25.3653 15.5455 32 28.5 32C41.4545 32 52.5177 25.3653 57 16C52.5177 6.63467 41.4545 0 28.5 0Z" fill="black"/>
</svg>
