<svg width="46" height="45" viewBox="0 0 46 45" fill="none" xmlns="http://www.w3.org/2000/svg">
<path d="M22.9997 37.5C27.0663 37.5 30.9664 35.9196 33.842 33.1066C36.7175 30.2936 38.333 26.4782 38.333 22.5C38.333 18.5218 36.7175 14.7064 33.842 11.8934C30.9664 9.08035 27.0663 7.5 22.9997 7.5C18.933 7.5 15.0329 9.08035 12.1574 11.8934C9.28181 14.7064 7.66634 18.5218 7.66634 22.5C7.66634 26.4782 9.28181 30.2936 12.1574 33.1066C15.0329 35.9196 18.933 37.5 22.9997 37.5ZM22.9997 3.75C25.5167 3.75 28.009 4.23498 30.3344 5.17726C32.6598 6.11953 34.7728 7.50065 36.5526 9.24175C38.3323 10.9828 39.7442 13.0498 40.7074 15.3247C41.6706 17.5995 42.1663 20.0377 42.1663 22.5C42.1663 27.4728 40.147 32.2419 36.5526 35.7582C32.9581 39.2746 28.083 41.25 22.9997 41.25C12.4005 41.25 3.83301 32.8125 3.83301 22.5C3.83301 17.5272 5.85235 12.7581 9.44679 9.24175C13.0412 5.72544 17.9164 3.75 22.9997 3.75ZM23.958 13.125V22.9687L32.583 27.975L31.1455 30.2812L21.083 24.375V13.125H23.958Z" fill="black"/>
</svg>
