<svg width="196" height="196" viewBox="0 0 196 196" fill="none" xmlns="http://www.w3.org/2000/svg">
<g clip-path="url(#clip0_48_556)">
<path d="M134.75 85.75C134.75 106.085 118.335 122.5 98 122.5C77.665 122.5 61.25 106.085 61.25 85.75C61.25 65.415 77.665 49 98 49C118.335 49 134.75 65.415 134.75 85.75Z" fill="#F8F8F8"/>
<path fill-rule="evenodd" clip-rule="evenodd" d="M196 98C196 152.145 152.145 196 98 196C43.855 196 0 152.145 0 98C0 43.855 43.855 0 98 0C152.145 0 196 43.855 196 98ZM49 168.438C50.96 165.179 69.9475 134.75 97.8775 134.75C125.685 134.75 144.795 165.253 146.755 168.438C158.146 160.561 167.453 150.035 173.876 137.765C180.299 125.495 183.645 111.849 183.628 98C183.628 50.5925 145.285 12.25 97.8775 12.25C50.47 12.25 12.1275 50.5925 12.1275 98C12.1275 127.155 26.705 153.003 49 168.438Z" fill="#F8F8F8"/>
</g>
<defs>
<clipPath id="clip0_48_556">
<rect width="196" height="196" fill="white"/>
</clipPath>
</defs>
</svg>
